<svg width="139" height="91" viewBox="0 0 139 91" fill="none" xmlns="http://www.w3.org/2000/svg">
<path d="M23.901 4.98399V83.448C23.901 84.216 24.2423 84.856 24.925 85.368C25.6077 85.7947 26.5037 86.136 27.613 86.392C28.7223 86.5627 29.917 86.6907 31.197 86.776C32.477 86.8613 33.757 86.904 35.037 86.904H37.213V91H0.861V86.904H1.757C4.48767 86.904 6.877 86.6053 8.925 86.008C10.973 85.4107 11.997 84.1733 11.997 82.296V8.824C11.997 6.94666 10.973 5.70933 8.925 5.112C6.877 4.51466 4.48767 4.216 1.757 4.216H0.861V0.119995H65.117V23.544H60.637L58.589 11.896C58.2477 10.1893 57.4797 8.824 56.285 7.8C55.1757 6.77599 53.469 6.05066 51.165 5.62399C48.9463 5.19733 46.0023 4.98399 42.333 4.98399H23.901ZM22.493 42.488C27.1863 42.4027 31.3677 42.3173 35.037 42.232C38.7063 42.0613 42.1197 41.848 45.277 41.592C48.4343 41.2507 51.549 40.7387 54.621 40.056V49.528C51.549 48.76 48.4343 48.2053 45.277 47.864C42.1197 47.4373 38.7063 47.1813 35.037 47.096C31.3677 46.9253 27.1863 46.7973 22.493 46.712V42.488ZM97.776 4.98399V83.448C97.776 84.216 98.1173 84.856 98.8 85.368C99.4827 85.7947 100.379 86.136 101.488 86.392C102.597 86.5627 103.792 86.6907 105.072 86.776C106.352 86.8613 107.632 86.904 108.912 86.904H111.088V91H74.736V86.904H75.632C78.3627 86.904 80.752 86.6053 82.8 86.008C84.848 85.4107 85.872 84.1733 85.872 82.296V8.824C85.872 6.94666 84.848 5.70933 82.8 5.112C80.752 4.51466 78.3627 4.216 75.632 4.216H74.736V0.119995H138.992V23.544H134.512L132.464 11.896C132.123 10.1893 131.355 8.824 130.16 7.8C129.051 6.77599 127.344 6.05066 125.04 5.62399C122.821 5.19733 119.877 4.98399 116.208 4.98399H97.776ZM96.368 42.488C101.061 42.4027 105.243 42.3173 108.912 42.232C112.581 42.0613 115.995 41.848 119.152 41.592C122.309 41.2507 125.424 40.7387 128.496 40.056V49.528C125.424 48.76 122.309 48.2053 119.152 47.864C115.995 47.4373 112.581 47.1813 108.912 47.096C105.243 46.9253 101.061 46.7973 96.368 46.712V42.488Z" fill="#7F6CE0"/>
</svg>
