<svg xmlns="http://www.w3.org/2000/svg" xmlns:xlink="http://www.w3.org/1999/xlink" width="1024" zoomAndPan="magnify" viewBox="0 0 768 767.999994" height="1024" preserveAspectRatio="xMidYMid meet" version="1.0"><rect x="-76.8" width="921.6" fill="#ffffff" y="-76.799999" height="921.599993" fill-opacity="1"/><rect x="-76.8" width="921.6" fill="#ffffff" y="-76.799999" height="921.599993" fill-opacity="1"/><path fill="#2eccef" d="M 183.75 211.5 C 184.851562 211.433594 185.957031 211.402344 187.0625 211.40625 L 189.242188 211.398438 L 191.664062 211.40625 L 194.21875 211.402344 C 197.0625 211.398438 199.910156 211.402344 202.757812 211.402344 C 204.789062 211.402344 206.816406 211.402344 208.847656 211.398438 C 213.804688 211.394531 218.765625 211.394531 223.722656 211.398438 C 229.488281 211.402344 235.257812 211.402344 241.023438 211.398438 C 251.933594 211.398438 262.84375 211.398438 273.753906 211.402344 C 283.125 211.40625 292.496094 211.40625 301.863281 211.402344 C 314.46875 211.402344 327.070312 211.402344 339.671875 211.398438 C 343.695312 211.398438 347.722656 211.398438 351.746094 211.398438 C 356.648438 211.394531 361.550781 211.398438 366.453125 211.398438 C 368.957031 211.402344 371.457031 211.402344 373.960938 211.398438 C 376.667969 211.398438 379.378906 211.402344 382.085938 211.40625 L 384.507812 211.398438 L 386.6875 211.40625 L 388.585938 211.40625 L 390 211.5 L 390.75 212.25 L 390.75 267.75 L 242.25 267.75 L 242.25 342.75 L 366 342.75 C 365.105469 348.554688 364.210938 354.253906 362.984375 359.980469 L 362.558594 362 C 362.113281 364.097656 361.667969 366.199219 361.21875 368.296875 C 360.777344 370.375 360.335938 372.457031 359.898438 374.539062 C 359.625 375.820312 359.355469 377.101562 359.082031 378.382812 C 357.570312 385.492188 356.175781 392.621094 354.75 399.75 L 242.25 399.75 L 242.25 555.75 L 183 555.75 C 182.972656 506.292969 182.960938 456.867188 182.957031 407.476562 C 182.957031 390.820312 182.949219 374.167969 182.941406 357.511719 C 182.933594 339.917969 182.929688 322.324219 182.929688 304.734375 C 182.929688 294.1875 182.925781 283.644531 182.917969 273.097656 C 182.914062 265.878906 182.914062 258.65625 182.914062 251.4375 C 182.914062 247.261719 182.914062 243.089844 182.910156 238.917969 C 182.90625 235.105469 182.90625 231.292969 182.910156 227.476562 C 182.910156 226.09375 182.910156 224.707031 182.90625 223.320312 C 182.902344 221.449219 182.902344 219.578125 182.90625 217.707031 L 182.902344 216.042969 C 182.90625 214.777344 182.949219 213.515625 183 212.25 Z M 411.75 211.5 C 412.785156 211.433594 413.824219 211.402344 414.863281 211.40625 L 416.910156 211.402344 L 419.1875 211.410156 L 421.582031 211.40625 C 424.253906 211.40625 426.925781 211.410156 429.597656 211.414062 L 435.316406 211.414062 C 439.433594 211.414062 443.550781 211.417969 447.664062 211.421875 C 453.617188 211.425781 459.566406 211.429688 465.515625 211.429688 C 475.171875 211.429688 484.824219 211.4375 494.480469 211.445312 C 503.859375 211.449219 513.238281 211.457031 522.617188 211.457031 L 524.371094 211.457031 L 533.066406 211.460938 C 557.128906 211.46875 581.1875 211.484375 605.25 211.5 L 604.902344 214.710938 L 604.707031 216.515625 C 604.429688 218.835938 603.996094 221.109375 603.53125 223.398438 L 602.949219 226.292969 L 602.320312 229.355469 L 601.671875 232.546875 C 601.222656 234.757812 600.773438 236.972656 600.320312 239.183594 C 599.738281 242.023438 599.160156 244.863281 598.585938 247.699219 C 598.144531 249.890625 597.699219 252.078125 597.25 254.265625 C 597.039062 255.3125 596.824219 256.359375 596.613281 257.410156 C 596.316406 258.867188 596.019531 260.324219 595.71875 261.78125 L 595.207031 264.292969 C 594.75 266.25 594.75 266.25 594 267.75 L 469.5 267.75 L 469.5 342.75 L 582 342.75 C 581.15625 350.34375 581.15625 350.34375 580.59375 353.125 L 580.210938 355.027344 L 579.804688 357.015625 L 579.375 359.148438 C 578.925781 361.386719 578.472656 363.621094 578.015625 365.859375 L 577.125 370.265625 C 576.6875 372.445312 576.246094 374.625 575.804688 376.808594 C 575.070312 380.410156 574.347656 384.019531 573.636719 387.628906 L 573.222656 389.726562 C 572.964844 391.042969 572.707031 392.355469 572.453125 393.667969 C 571.582031 398.082031 571.582031 398.082031 570.75 399.75 L 469.5 399.75 L 469.5 555.75 L 411 555.75 C 411.015625 506.339844 411 456.914062 410.957031 407.476562 C 410.957031 390.820312 410.949219 374.167969 410.941406 357.511719 C 410.933594 339.917969 410.929688 322.324219 410.929688 304.734375 C 410.929688 294.1875 410.925781 283.644531 410.917969 273.097656 C 410.914062 265.878906 410.914062 258.65625 410.914062 251.4375 C 410.914062 247.261719 410.914062 243.089844 410.910156 238.917969 C 410.90625 235.105469 410.90625 231.292969 410.910156 227.476562 C 410.910156 226.09375 410.910156 224.707031 410.90625 223.320312 C 410.902344 221.449219 410.902344 219.578125 410.90625 217.707031 L 410.902344 216.042969 C 410.90625 214.777344 410.949219 213.515625 411 212.25 Z M 411.75 211.5 " fill-opacity="1" fill-rule="nonzero"/><path fill="#33dff6" d="M 183.75 213 L 389.25 213 L 389.25 266.25 L 241.5 266.25 L 241.5 343.5 L 365.25 343.5 L 363.75 346.5 L 363.75 345 L 250.5 345.75 L 250.5 347.25 L 252 347.25 L 252.75 348.75 L 254.25 349.5 L 252.75 354 L 250.5 354 L 249.75 355.5 L 246.75 355.5 L 245.25 351.75 L 244.5 352.5 L 242.25 353.25 L 240.75 352.5 L 240.75 354.75 L 236.25 354.75 L 236.25 353.25 L 234.75 353.25 L 234.796875 351.140625 C 234.867188 348.734375 234.867188 348.734375 234 346.5 L 234.75 345 L 236.25 345 L 237 342 L 239.25 342 L 238.5 330 L 233.25 330 L 233.25 331.5 L 235.5 332.25 L 232.921875 333.234375 L 230.25 334.5 L 229.5 336.75 L 231 336.75 L 231 335.25 L 235.5 334.5 L 234 335.25 L 234 338.25 C 232.570312 339.539062 231.21875 340.390625 229.5 341.25 L 229.5 338.25 L 228 338.25 L 228 339.75 L 225.46875 339.328125 L 222.75 339 L 221.25 339.75 L 220.5 337.5 L 217.5 339 C 216.933594 337.234375 216.71875 336.15625 217.078125 334.3125 L 217.5 333 L 216.75 333.75 L 214.5 335.25 L 214.5 333.75 L 212.25 333.75 L 212.25 328.5 L 209.25 329.25 L 210.328125 330.140625 C 211.5 331.5 211.5 331.5 212.015625 333.515625 L 212.25 335.25 L 210 335.25 L 210.75 333.75 L 207.75 333.75 L 207.75 332.25 L 202.5 333.75 L 202.5 332.25 L 198.75 332.25 L 198.75 330.75 L 196.5 331.5 L 197.25 328.5 L 192 329.25 L 192 326.25 L 189.75 327 L 188.25 324 L 189.75 321.75 L 189 319.5 L 187.5 322.5 L 187.5 321 L 186 321 L 186.75 318 L 185.25 318 L 184.5 554.25 L 240 553.5 L 240 402 L 238.5 402 C 238.121094 400.921875 237.746094 399.84375 237.375 398.765625 L 236.742188 396.945312 C 236.25 395.25 236.25 395.25 236.25 393 L 238.5 393 L 238.5 391.5 L 240 391.5 L 240 393 L 242.15625 393.328125 C 244.5 393.75 244.5 393.75 246 394.5 L 246 393 L 244.5 392.25 L 246 390.09375 L 247.5 387.75 L 247.5 386.25 L 249.75 385.5 L 251.949219 389.527344 L 252.75 390.75 L 254.25 391.5 L 255 389.25 C 257.25 388.5 257.25 388.5 258.890625 388.828125 L 260.25 389.25 L 261 392.25 L 262.5 391.5 L 262.5 393 L 264 393 L 262.5 396 L 256.5 396 L 256.5 397.5 L 353.25 398.25 L 354 391.5 L 354.75 391.5 L 354 399 L 241.5 399 L 241.5 555 L 183.75 555 Z M 183.75 213 " fill-opacity="1" fill-rule="nonzero"/><path fill="#28aed0" d="M 411.75 211.5 C 412.785156 211.433594 413.824219 211.402344 414.863281 211.40625 L 416.910156 211.402344 L 419.1875 211.410156 L 421.582031 211.40625 C 424.253906 211.40625 426.925781 211.410156 429.597656 211.414062 L 435.316406 211.414062 C 439.433594 211.414062 443.550781 211.417969 447.664062 211.421875 C 453.617188 211.425781 459.566406 211.429688 465.515625 211.429688 C 475.171875 211.429688 484.824219 211.4375 494.480469 211.445312 C 503.859375 211.449219 513.238281 211.457031 522.617188 211.457031 L 524.371094 211.457031 L 533.066406 211.460938 C 557.128906 211.46875 581.1875 211.484375 605.25 211.5 L 605.25 215.25 L 604.5 213 L 411.75 213 L 411.75 555 L 468.75 555 L 468 554.25 L 412.5 554.25 L 412.5 315 L 413.25 315 L 413.308594 317.382812 C 413.378906 320.324219 413.453125 323.265625 413.527344 326.207031 C 413.5625 327.472656 413.59375 328.742188 413.621094 330.011719 C 413.667969 331.84375 413.714844 333.675781 413.761719 335.507812 L 413.800781 337.203125 C 413.875 339.914062 414.042969 342.566406 414.394531 345.257812 C 414.726562 347.8125 414.707031 349.953125 414.421875 352.5 L 414.191406 354.65625 L 414 356.25 L 417 355.5 L 417 357.75 L 414.75 357.75 L 414.777344 359.355469 C 414.84375 367.089844 414.429688 374.78125 414 382.5 L 415.5 383.25 L 416.25 384 L 416.25 381.75 L 418.5 382.5 L 416.25 387.75 L 414.75 387.75 L 414 390 L 414.75 391.5 L 414 393 L 417 393.75 L 416.25 399 L 423 395.25 L 423.75 396.75 L 423 399 L 425.25 398.25 L 425.578125 396.140625 C 426 393.75 426 393.75 426.75 391.5 L 429.75 392.25 L 429.75 396 L 431.25 396 L 431.25 394.5 C 432.65625 394.03125 432.65625 394.03125 434.25 393.75 L 435.75 395.25 C 436.035156 396.492188 436.285156 397.742188 436.5 399 L 437.25 401.25 L 439.6875 400.546875 C 441.617188 400 443.554688 399.484375 445.5 399 L 444 405 L 450 405 L 449.53125 403.6875 L 449.25 402 C 449.953125 400.3125 449.953125 400.3125 450.75 399 L 449.25 398.25 L 448.5 397.5 C 447.507812 396.988281 446.507812 396.488281 445.5 396 L 447 396 L 447 393 L 449.25 390.75 C 449.679688 389.046875 449.679688 389.046875 449.765625 387.234375 L 449.914062 385.398438 L 450 384 L 452.25 384 L 453 380.25 L 453.75 382.5 L 455.25 383.25 L 453.75 383.25 L 453.75 384.75 L 458.25 387 L 459 384.75 C 461.296875 383.859375 461.296875 383.859375 463.5 383.25 L 463.5 384.75 L 465 384.75 L 465.75 387 C 468.085938 385.6875 468.085938 385.6875 469.078125 383.578125 L 470.25 381.75 C 471.890625 381.140625 471.890625 381.140625 473.25 381 L 473.25 382.5 L 474.75 382.5 L 474 378.75 L 476.25 378 L 476.25 379.5 L 479.25 381 L 478.5 383.25 C 476.953125 384.140625 476.953125 384.140625 475.5 384.75 L 478.5 387 L 479.25 384.75 L 480.75 383.25 L 482.25 386.25 L 484.5 384 L 483 384 L 483.75 379.5 L 485.953125 378.9375 L 488.25 378 C 488.976562 376.476562 488.976562 376.476562 489 375 C 490.734375 374.453125 492.488281 373.957031 494.25 373.5 L 495.75 374.25 L 496.03125 372.46875 L 496.5 370.5 L 500.25 366.75 L 501.75 367.5 L 502.5 363.75 L 505.5 363.75 L 507 361.5 L 508.5 361.5 L 509.25 365.25 L 507.75 365.25 L 507.75 367.5 L 506.25 369 L 509.25 368.25 L 510.75 358.5 L 513 358.5 L 513.75 360.75 C 515.4375 359.210938 516 358.496094 516.75 356.25 L 519 356.25 L 519 354 C 520.5 352.734375 520.5 352.734375 522 351.75 L 522.75 353.25 L 524.859375 353.0625 L 527.25 353.25 C 528.65625 354.75 528.65625 354.75 529.5 356.25 L 531 352.5 L 529.5 352.5 L 529.5 354 L 528 354 L 528.75 351.75 L 530.25 351 C 530.742188 349.105469 530.742188 349.105469 531 347.25 L 529.5 347.25 L 529.5 345.75 L 480 345.75 L 480 345 L 481.554688 345.003906 C 494.03125 345.019531 506.503906 345.03125 518.976562 345.039062 C 525.011719 345.042969 531.042969 345.046875 537.074219 345.054688 C 542.332031 345.0625 547.585938 345.070312 552.84375 345.070312 C 555.628906 345.070312 558.414062 345.074219 561.195312 345.078125 C 564.300781 345.085938 567.402344 345.085938 570.507812 345.085938 L 573.328125 345.09375 L 575.875 345.089844 L 578.101562 345.09375 L 579.75 345 L 580.5 344.25 L 469.5 344.25 C 468.652344 347.851562 468.652344 347.851562 468.75 351 L 468 352.5 L 466.5 352.5 L 466.5 351 C 465.234375 351.457031 463.984375 351.957031 462.75 352.5 L 462 354 L 461.25 351.75 L 459.75 351 C 460.777344 348.886719 461.902344 346.824219 463.125 344.8125 L 464.085938 343.207031 L 465 342 L 466.5 342 L 466.5 270.75 L 465 271.5 L 464.25 273.75 L 462 273 L 461.25 276.75 C 459.515625 277.171875 459.515625 277.171875 457.5 277.5 L 455.25 276.75 L 453.75 267.75 L 449.25 267.75 L 450 265.5 L 452.25 264 L 452.25 261.75 L 454.5 262.5 L 456.75 261.75 L 457.5 260.25 L 458.578125 261.703125 C 459.628906 263.164062 459.628906 263.164062 460.5 264 L 462.140625 263.15625 L 464.25 262.5 C 466.359375 263.15625 466.359375 263.15625 468 264 L 468.75 262.5 L 468.75 264 L 470.25 264.75 L 468.75 264.75 L 468.75 266.25 L 592.5 266.25 L 594 262.5 L 594.75 262.5 L 594 267.75 L 469.5 267.75 L 469.5 342.75 L 582 342.75 C 581.15625 350.34375 581.15625 350.34375 580.59375 353.125 L 580.210938 355.027344 L 579.804688 357.015625 L 579.375 359.148438 C 578.925781 361.386719 578.472656 363.621094 578.015625 365.859375 L 577.125 370.265625 C 576.6875 372.445312 576.246094 374.625 575.804688 376.808594 C 575.070312 380.410156 574.347656 384.019531 573.636719 387.628906 L 573.222656 389.726562 C 572.964844 391.042969 572.707031 392.355469 572.453125 393.667969 C 571.582031 398.082031 571.582031 398.082031 570.75 399.75 L 469.5 399.75 L 469.5 555.75 L 411 555.75 C 411.015625 506.339844 411 456.914062 410.957031 407.476562 C 410.957031 390.820312 410.949219 374.167969 410.941406 357.511719 C 410.933594 339.917969 410.929688 322.324219 410.929688 304.734375 C 410.929688 294.1875 410.925781 283.644531 410.917969 273.097656 C 410.914062 265.878906 410.914062 258.65625 410.914062 251.4375 C 410.914062 247.261719 410.914062 243.089844 410.910156 238.917969 C 410.90625 235.105469 410.90625 231.292969 410.910156 227.476562 C 410.910156 226.09375 410.910156 224.707031 410.90625 223.320312 C 410.902344 221.449219 410.902344 219.578125 410.90625 217.707031 L 410.902344 216.042969 C 410.90625 214.777344 410.949219 213.515625 411 212.25 Z M 462 384.75 L 463.5 386.25 L 463.5 384.75 Z M 192.75 401.25 L 195 404.25 L 199.5 403.5 L 201 405.75 L 202.5 405.75 L 203.25 408 L 205.5 406.5 C 207.890625 406.40625 207.890625 406.40625 210 406.5 L 210.75 405 C 212.464844 404.523438 212.464844 404.523438 214.546875 404.15625 L 216.636719 403.773438 L 218.25 403.5 L 219 405.75 C 220.796875 406.261719 220.796875 406.261719 222.75 406.5 L 224.25 405 L 225 405.75 L 226.5 404.25 L 228 407.25 L 230.25 406.5 L 231 409.5 L 234.75 410.25 L 234.75 407.25 L 231.75 406.5 L 232.5 402.75 L 234.75 402 L 237 404.25 L 238.5 402.75 L 240 402.75 C 240.117188 422.390625 240.226562 442.035156 240.332031 461.675781 C 240.382812 470.796875 240.433594 479.917969 240.484375 489.035156 C 240.53125 496.980469 240.578125 504.925781 240.617188 512.871094 C 240.640625 517.082031 240.664062 521.292969 240.691406 525.503906 C 240.714844 529.460938 240.738281 533.417969 240.753906 537.375 C 240.761719 538.832031 240.769531 540.289062 240.78125 541.746094 C 240.792969 543.726562 240.804688 545.707031 240.8125 547.6875 L 240.828125 549.457031 C 240.832031 550.804688 240.792969 552.152344 240.75 553.5 L 240 554.25 C 238.273438 554.320312 236.546875 554.335938 234.820312 554.335938 L 233.179688 554.335938 C 231.382812 554.335938 229.585938 554.328125 227.785156 554.324219 L 224.054688 554.320312 C 220.777344 554.316406 217.5 554.3125 214.222656 554.300781 C 210.878906 554.292969 207.535156 554.289062 204.191406 554.285156 C 197.628906 554.277344 191.0625 554.265625 184.5 554.25 C 184.484375 535.8125 184.46875 517.375 184.460938 498.9375 C 184.457031 490.375 184.453125 481.816406 184.445312 473.253906 C 184.4375 465.792969 184.429688 458.328125 184.429688 450.863281 C 184.429688 446.914062 184.425781 442.964844 184.421875 439.011719 C 184.414062 435.289062 184.414062 431.566406 184.414062 427.847656 C 184.414062 426.484375 184.414062 425.121094 184.410156 423.761719 C 184.375 405.253906 184.375 405.253906 186 402 L 188.25 402.75 L 188.25 404.25 L 190.5 404.25 L 190.5 406.5 L 192 406.5 L 191.953125 404.296875 L 192 402 Z M 203.25 404.25 L 204.75 404.25 L 204 405.75 Z M 203.25 404.25 " fill-opacity="1" fill-rule="nonzero"/><path fill="#28aed0" d="M 411.75 211.5 C 412.785156 211.433594 413.824219 211.402344 414.863281 211.40625 L 416.910156 211.402344 L 419.1875 211.410156 L 421.582031 211.40625 C 424.253906 211.40625 426.925781 211.410156 429.597656 211.414062 L 435.316406 211.414062 C 439.433594 211.414062 443.550781 211.417969 447.664062 211.421875 C 453.617188 211.425781 459.566406 211.429688 465.515625 211.429688 C 475.171875 211.429688 484.824219 211.4375 494.480469 211.445312 C 503.859375 211.449219 513.238281 211.457031 522.617188 211.457031 L 524.371094 211.457031 L 533.066406 211.460938 C 557.128906 211.46875 581.1875 211.484375 605.25 211.5 L 605.25 215.25 L 604.5 213 L 411.75 213 L 411.75 555 L 468.75 555 L 468 402 L 467.25 410.25 L 465 409.5 L 465.75 408 L 463.5 408 L 463.5 410.25 L 462 410.25 L 461.25 412.5 L 459 412.5 L 459 414 L 456 414 L 455.25 411 L 456.65625 410.90625 L 458.25 410.25 C 459.230469 408.003906 459.230469 408.003906 459.75 405.75 L 456.75 408.75 L 455.25 408 L 456 405.75 L 452.25 405 L 452.15625 406.640625 C 451.5 408.75 451.5 408.75 450.449219 409.832031 C 449.328125 410.757812 448.164062 411.632812 447 412.5 L 448.5 416.25 L 450.75 414.75 L 449.25 419.25 L 447 418.5 L 447 416.25 L 445.5 416.25 L 445.5 414 L 439.5 413.25 L 439.5 418.5 L 438.75 416.25 L 437.25 416.25 L 437.25 417.75 L 431.25 418.5 L 432 414 L 429.515625 414.75 C 426.929688 415.453125 425.207031 415.570312 422.578125 415.3125 L 420.75 414.75 C 419.765625 413.203125 419.765625 413.203125 419.25 411.75 L 421.5 409.5 L 419.25 407.25 L 416.25 408.75 L 416.25 405.75 L 414.75 405 L 415.5 408 L 414 408 C 413.871094 406.125 413.746094 404.25 413.625 402.375 L 413.515625 400.792969 C 413.28125 397.1875 413.21875 393.613281 413.25 390 L 414.75 391.5 L 414 393 L 417 393.75 L 416.25 399 L 423 395.25 L 423.75 396.75 L 423 399 L 425.25 398.25 L 425.578125 396.140625 C 426 393.75 426 393.75 426.75 391.5 L 429.75 392.25 L 429.75 396 L 431.25 396 L 431.25 394.5 C 432.65625 394.03125 432.65625 394.03125 434.25 393.75 L 435.75 395.25 C 436.035156 396.492188 436.285156 397.742188 436.5 399 L 437.25 401.25 L 439.6875 400.546875 C 441.617188 400 443.554688 399.484375 445.5 399 L 444 405 L 450 405 L 449.53125 403.6875 L 449.25 402 C 449.953125 400.3125 449.953125 400.3125 450.75 399 L 449.25 398.25 L 448.5 397.5 C 447.507812 396.988281 446.507812 396.488281 445.5 396 L 447 396 L 447 393 L 449.25 390.75 C 449.679688 389.046875 449.679688 389.046875 449.765625 387.234375 L 449.914062 385.398438 L 450 384 L 452.25 384 L 453 380.25 L 453.75 382.5 L 455.25 383.25 L 453.75 383.25 L 453.75 384.75 L 458.25 387 L 459 384.75 C 461.296875 383.859375 461.296875 383.859375 463.5 383.25 L 463.5 384.75 L 465 384.75 L 465.75 387 C 468.085938 385.6875 468.085938 385.6875 469.078125 383.578125 L 470.25 381.75 C 471.890625 381.140625 471.890625 381.140625 473.25 381 L 473.25 382.5 L 474.75 382.5 L 474 378.75 L 476.25 378 L 476.25 379.5 L 479.25 381 L 478.5 383.25 C 476.953125 384.140625 476.953125 384.140625 475.5 384.75 L 478.5 387 L 479.25 384.75 L 480.75 383.25 L 482.25 386.25 L 484.5 384 L 483 384 L 483.75 379.5 L 485.953125 378.9375 L 488.25 378 C 488.976562 376.476562 488.976562 376.476562 489 375 C 490.734375 374.453125 492.488281 373.957031 494.25 373.5 L 495.75 374.25 L 496.03125 372.46875 L 496.5 370.5 L 500.25 366.75 L 501.75 367.5 L 502.5 363.75 L 505.5 363.75 L 507 361.5 L 508.5 361.5 L 509.25 365.25 L 507.75 365.25 L 507.75 367.5 L 506.25 369 L 509.25 368.25 L 510.75 358.5 L 513 358.5 L 513.75 360.75 C 515.4375 359.210938 516 358.496094 516.75 356.25 L 519 356.25 L 519 354 C 520.5 352.734375 520.5 352.734375 522 351.75 L 522.75 353.25 L 524.859375 353.0625 L 527.25 353.25 C 528.65625 354.75 528.65625 354.75 529.5 356.25 L 531 352.5 L 529.5 352.5 L 529.5 354 L 528 354 L 528.75 351.75 L 530.25 351 C 530.742188 349.105469 530.742188 349.105469 531 347.25 L 529.5 347.25 L 529.5 345.75 L 480 345.75 L 480 345 L 481.554688 345.003906 C 494.03125 345.019531 506.503906 345.03125 518.976562 345.039062 C 525.011719 345.042969 531.042969 345.046875 537.074219 345.054688 C 542.332031 345.0625 547.585938 345.070312 552.84375 345.070312 C 555.628906 345.070312 558.414062 345.074219 561.195312 345.078125 C 564.300781 345.085938 567.402344 345.085938 570.507812 345.085938 L 573.328125 345.09375 L 575.875 345.089844 L 578.101562 345.09375 L 579.75 345 L 580.5 344.25 L 469.5 344.25 C 468.652344 347.851562 468.652344 347.851562 468.75 351 L 468 352.5 L 466.5 352.5 L 466.5 351 C 465.234375 351.457031 463.984375 351.957031 462.75 352.5 L 462 354 L 461.25 351.75 L 459.75 351 C 460.777344 348.886719 461.902344 346.824219 463.125 344.8125 L 464.085938 343.207031 L 465 342 L 466.5 342 L 466.5 270.75 L 465 271.5 L 464.25 273.75 L 462 273 L 461.25 276.75 C 459.515625 277.171875 459.515625 277.171875 457.5 277.5 L 455.25 276.75 L 453.75 267.75 L 449.25 267.75 L 450 265.5 L 452.25 264 L 452.25 261.75 L 454.5 262.5 L 456.75 261.75 L 457.5 260.25 L 458.578125 261.703125 C 459.628906 263.164062 459.628906 263.164062 460.5 264 L 462.140625 263.15625 L 464.25 262.5 C 466.359375 263.15625 466.359375 263.15625 468 264 L 468.75 262.5 L 468.75 264 L 470.25 264.75 L 468.75 264.75 L 468.75 266.25 L 592.5 266.25 L 594 262.5 L 594.75 262.5 L 594 267.75 L 469.5 267.75 L 469.5 342.75 L 582 342.75 C 581.15625 350.34375 581.15625 350.34375 580.59375 353.125 L 580.210938 355.027344 L 579.804688 357.015625 L 579.375 359.148438 C 578.925781 361.386719 578.472656 363.621094 578.015625 365.859375 L 577.125 370.265625 C 576.6875 372.445312 576.246094 374.625 575.804688 376.808594 C 575.070312 380.410156 574.347656 384.019531 573.636719 387.628906 L 573.222656 389.726562 C 572.964844 391.042969 572.707031 392.355469 572.453125 393.667969 C 571.582031 398.082031 571.582031 398.082031 570.75 399.75 L 469.5 399.75 L 469.5 555.75 L 411 555.75 C 411.015625 506.339844 411 456.914062 410.957031 407.476562 C 410.957031 390.820312 410.949219 374.167969 410.941406 357.511719 C 410.933594 339.917969 410.929688 322.324219 410.929688 304.734375 C 410.929688 294.1875 410.925781 283.644531 410.917969 273.097656 C 410.914062 265.878906 410.914062 258.65625 410.914062 251.4375 C 410.914062 247.261719 410.914062 243.089844 410.910156 238.917969 C 410.90625 235.105469 410.90625 231.292969 410.910156 227.476562 C 410.910156 226.09375 410.910156 224.707031 410.90625 223.320312 C 410.902344 221.449219 410.902344 219.578125 410.90625 217.707031 L 410.902344 216.042969 C 410.90625 214.777344 410.949219 213.515625 411 212.25 Z M 462 384.75 L 463.5 386.25 L 463.5 384.75 Z M 462 384.75 " fill-opacity="1" fill-rule="nonzero"/><path fill="#2eccef" d="M 183.75 211.5 C 184.851562 211.433594 185.957031 211.402344 187.0625 211.40625 L 189.242188 211.398438 L 191.664062 211.40625 L 194.21875 211.402344 C 197.0625 211.398438 199.910156 211.402344 202.757812 211.402344 C 204.789062 211.402344 206.816406 211.402344 208.847656 211.398438 C 213.804688 211.394531 218.765625 211.394531 223.722656 211.398438 C 229.488281 211.402344 235.257812 211.402344 241.023438 211.398438 C 251.933594 211.398438 262.84375 211.398438 273.753906 211.402344 C 283.125 211.40625 292.496094 211.40625 301.863281 211.402344 C 314.46875 211.402344 327.070312 211.402344 339.671875 211.398438 C 343.695312 211.398438 347.722656 211.398438 351.746094 211.398438 C 356.648438 211.394531 361.550781 211.398438 366.453125 211.398438 C 368.957031 211.402344 371.457031 211.402344 373.960938 211.398438 C 376.667969 211.398438 379.378906 211.402344 382.085938 211.40625 L 384.507812 211.398438 L 386.6875 211.40625 L 388.585938 211.40625 L 390 211.5 L 390.75 212.25 L 390.75 267.75 L 242.25 267.75 L 242.25 342.75 L 366 342.75 C 365.105469 348.554688 364.210938 354.253906 362.984375 359.980469 L 362.558594 362 C 362.113281 364.097656 361.667969 366.199219 361.21875 368.296875 C 360.777344 370.375 360.335938 372.457031 359.898438 374.539062 C 359.625 375.820312 359.355469 377.101562 359.082031 378.382812 C 357.570312 385.492188 356.175781 392.621094 354.75 399.75 L 242.25 399.75 L 242.25 555.75 L 183 555.75 C 182.972656 506.292969 182.960938 456.867188 182.957031 407.476562 C 182.957031 390.820312 182.949219 374.167969 182.941406 357.511719 C 182.933594 339.917969 182.929688 322.324219 182.929688 304.734375 C 182.929688 294.1875 182.925781 283.644531 182.917969 273.097656 C 182.914062 265.878906 182.914062 258.65625 182.914062 251.4375 C 182.914062 247.261719 182.914062 243.089844 182.910156 238.917969 C 182.90625 235.105469 182.90625 231.292969 182.910156 227.476562 C 182.910156 226.09375 182.910156 224.707031 182.90625 223.320312 C 182.902344 221.449219 182.902344 219.578125 182.90625 217.707031 L 182.902344 216.042969 C 182.90625 214.777344 182.949219 213.515625 183 212.25 Z M 183.75 213 L 183.75 555 L 241.5 555 L 241.5 399 L 354 399 L 354.75 391.5 C 352.96875 394.5 352.96875 394.5 353.25 398.25 L 256.5 397.5 L 256.5 396 L 267 396 L 266.25 393 C 267.890625 391.171875 267.890625 391.171875 270 389.25 C 271.707031 387.320312 271.707031 387.320312 273 385.5 L 273 384 L 274.5 384 L 275.25 381.75 L 276.75 381 C 276.671875 379.160156 276.671875 379.160156 276 377.25 C 274.144531 376.21875 274.144531 376.21875 272.25 375.75 L 271.5 376.5 L 270.75 374.25 L 272.578125 373.96875 L 274.5 373.5 L 275.25 372 C 276.484375 371.460938 277.734375 370.960938 279 370.5 L 280.5 369.75 L 280.78125 368.34375 L 281.25 366.75 C 282.796875 365.4375 282.796875 365.4375 284.25 364.5 L 282.75 362.25 L 280.5 362.25 L 279.75 360 C 280.734375 358.359375 280.734375 358.359375 282 357 L 283.5 357 L 283.5 361.5 C 284.960938 361.355469 284.960938 361.355469 286.5 360.75 C 287.542969 359.351562 287.542969 359.351562 288 357.75 L 287.25 356.25 L 288.609375 357 C 290.289062 357.90625 290.289062 357.90625 292.5 357.75 L 292.5 359.25 L 291 360 L 293.25 361.5 L 292.078125 362.765625 L 291 364.5 C 291.167969 366.523438 291.167969 366.523438 291.75 368.25 L 297 367.5 L 296.25 363.75 L 300 362.25 L 300.75 363 L 299.25 364.5 L 302.25 365.25 L 302.484375 363.796875 L 303 362.25 L 305.25 361.5 L 303.75 360.75 L 303.75 359.25 L 300.75 359.25 L 300.75 357.75 L 305.25 356.25 L 305.25 354.75 L 307.03125 354.515625 L 309 354 L 310.5 351.75 L 311.8125 352.5 C 313.648438 353.453125 313.648438 353.453125 316.5 353.25 L 318 351 L 320.25 351.75 C 320.765625 353.296875 320.765625 353.296875 321 354.75 L 322.5 351 L 321 350.25 L 322.5 345.75 L 363.75 345 L 364.5 346.5 L 365.25 343.5 L 241.5 343.5 L 241.5 266.25 L 389.25 266.25 L 389.25 213 Z M 297 361.5 L 298.5 362.25 Z M 297 361.5 " fill-opacity="1" fill-rule="nonzero"/><path fill="#33dff6" d="M 183.75 213 L 389.25 213 L 389.25 266.25 L 242.25 266.25 L 242.25 265.5 L 388.5 265.5 L 388.5 213.75 L 304.5 214.5 L 305.25 216.75 L 300 216.75 L 299.25 219.75 L 301.5 219 L 301.125 220.5 C 300.804688 222.417969 300.765625 223.925781 300.84375 225.84375 L 300.75 228.75 C 299.625 230.25 299.625 230.25 298.5 231 L 297.75 228.75 L 296.671875 230.578125 C 295.5 232.5 295.5 232.5 294.75 233.25 L 292.5 234 L 291.75 235.5 L 289.5 236.25 L 289.5 240.75 L 288 240.75 L 286.5 237.75 L 282.75 238.5 L 282.75 237 L 281.25 237 L 280.5 239.25 L 279.75 237.75 C 277.917969 237.890625 277.917969 237.890625 276 238.5 C 275.167969 239.914062 275.167969 239.914062 274.5 241.5 C 273.046875 242.859375 273.046875 242.859375 271.5 243.75 L 269.25 243 L 268.5 245.25 C 266.25 246 266.25 246 264 246 L 263.25 248.25 L 261.75 249 L 261.75 252.75 L 260.25 249.75 L 257.25 249.75 L 257.25 246 C 255.476562 245.546875 255.476562 245.546875 253.5 245.25 L 251.25 246 L 250.5 247.5 L 248.25 245.25 L 246.75 248.25 L 241.5 247.5 L 243.75 249.75 L 240.75 249.75 L 240 251.25 L 240 247.5 L 237.140625 247.640625 C 235.484375 247.648438 235.484375 247.648438 234 247.5 C 232.5 246.375 232.5 246.375 231.75 245.25 L 233.25 245.25 C 233.289062 243.78125 233.320312 242.3125 233.34375 240.84375 L 233.394531 238.363281 L 233.25 236.25 L 231.75 234.75 L 231.75 233.25 L 230.296875 232.59375 L 228.75 231.75 L 228 230.25 L 228 232.5 L 226.5 231.75 L 225.9375 233.203125 L 225 234.75 C 223.40625 235.3125 223.40625 235.3125 222 235.5 L 222 231.75 L 219.75 232.5 L 219.5625 235.40625 C 219.367188 237.0625 219.367188 237.0625 219 238.5 C 217.453125 239.625 217.453125 239.625 216 240 L 215.25 237.75 L 213.75 237 L 213.75 234.75 L 210.75 235.5 L 210 234 L 211.5 232.5 C 211.554688 230.582031 211.554688 230.582031 210.75 228.75 C 209.511719 228.222656 208.261719 227.722656 207 227.25 C 206.390625 225.65625 206.390625 225.65625 206.25 224.25 L 208.5 224.25 L 209.25 222 L 208.5 221.25 C 207.609375 219.890625 207.609375 219.890625 207 218.25 C 207.65625 216.5625 207.65625 216.5625 208.5 215.25 L 210 215.25 L 210 213.75 L 184.5 213.75 L 184.5 554.25 L 240 553.5 L 240 402 L 238.5 402 C 238.121094 400.921875 237.746094 399.84375 237.375 398.765625 L 236.742188 396.945312 C 236.25 395.25 236.25 395.25 236.25 393 L 238.5 393 L 238.5 391.5 L 240 391.5 L 240 393 L 242.15625 393.328125 C 244.5 393.75 244.5 393.75 246 394.5 L 246 393 L 244.5 392.25 L 246 390.09375 L 247.5 387.75 L 247.5 386.25 L 249.75 385.5 L 251.949219 389.527344 L 252.75 390.75 L 254.25 391.5 L 255 389.25 C 257.25 388.5 257.25 388.5 258.890625 388.828125 L 260.25 389.25 L 261 392.25 L 262.5 391.5 L 262.5 393 L 264 393 L 262.5 396 L 256.5 396 L 256.5 397.5 L 353.25 398.25 L 354 391.5 L 354.75 391.5 L 354 399 L 241.5 399 L 241.5 555 L 183.75 555 Z M 236.25 247.5 L 237.75 248.25 Z M 411.75 213 L 604.5 213 L 604.5 213.75 L 447.75 213.75 L 447.75 215.25 L 450 214.5 C 451.296875 214.449219 452.59375 214.433594 453.890625 214.453125 L 455.9375 214.472656 L 457.5 214.5 L 457.5 216 L 455.25 216 L 456 218.25 L 454.5 218.25 L 453.75 216.75 L 450.75 216.75 L 452.25 217.5 C 451.808594 219.769531 451.328125 222.011719 450.75 224.25 L 452.25 224.25 L 453 225.75 C 454.480469 225.488281 454.480469 225.488281 456 225 L 456.75 223.5 L 458.25 225 L 456.75 225 L 456 228 C 454.253906 228.285156 452.503906 228.535156 450.75 228.75 L 450 228 L 449.25 229.5 L 451.5 229.5 C 450.1875 233.8125 450.1875 233.8125 448.5 235.5 L 447 236.25 C 446.449219 237.984375 445.949219 239.734375 445.5 241.5 L 442.5 241.5 C 439.894531 239.902344 437.871094 237.679688 435.75 235.5 C 432.507812 237.019531 432.507812 237.019531 429.75 239.25 L 429.75 237.75 L 426.75 239.25 L 426.75 240.75 L 432 242.25 L 430.5 244.5 L 426.691406 242.742188 C 425.03125 242.089844 425.03125 242.089844 422.25 242.25 C 420.9375 240.75 420.9375 240.75 420 239.25 L 419.25 241.5 L 417.75 241.5 L 416.25 243 L 414.75 240 L 413.25 240 L 413.25 216 L 416.25 214.5 L 412.5 213.75 L 412.5 554.25 L 468 554.25 L 468 399.75 L 468.75 399.75 L 468.75 555 L 411.75 555 Z M 450.75 226.5 L 451.5 228 Z M 450.75 226.5 " fill-opacity="1" fill-rule="nonzero"/><path fill="#14485d" d="M 183.75 211.5 C 184.851562 211.433594 185.957031 211.402344 187.0625 211.40625 L 189.242188 211.398438 L 191.664062 211.40625 L 194.21875 211.402344 C 197.0625 211.398438 199.910156 211.402344 202.757812 211.402344 C 204.789062 211.402344 206.816406 211.402344 208.847656 211.398438 C 213.804688 211.394531 218.765625 211.394531 223.722656 211.398438 C 229.488281 211.402344 235.257812 211.402344 241.023438 211.398438 C 251.933594 211.398438 262.84375 211.398438 273.753906 211.402344 C 283.125 211.40625 292.496094 211.40625 301.863281 211.402344 C 314.46875 211.402344 327.070312 211.402344 339.671875 211.398438 C 343.695312 211.398438 347.722656 211.398438 351.746094 211.398438 C 356.648438 211.394531 361.550781 211.398438 366.453125 211.398438 C 368.957031 211.402344 371.457031 211.402344 373.960938 211.398438 C 376.667969 211.398438 379.378906 211.402344 382.085938 211.40625 L 384.507812 211.398438 L 386.6875 211.40625 L 388.585938 211.40625 L 390 211.5 L 390.75 212.25 L 390.75 267.75 L 242.25 267.75 L 242.25 342.75 L 366 342.75 L 365.25 345 L 365.25 343.5 L 241.5 343.5 L 241.5 266.25 L 389.25 266.25 L 389.25 213 L 183.75 213 L 183.75 555 L 241.5 555 L 241.5 399 L 354 399 L 354.75 392.25 L 355.5 392.25 L 354.75 399.75 L 242.25 399.75 L 242.25 555.75 L 183 555.75 C 182.972656 506.292969 182.960938 456.867188 182.957031 407.476562 C 182.957031 390.820312 182.949219 374.167969 182.941406 357.511719 C 182.933594 339.917969 182.929688 322.324219 182.929688 304.734375 C 182.929688 294.1875 182.925781 283.644531 182.917969 273.097656 C 182.914062 265.878906 182.914062 258.65625 182.914062 251.4375 C 182.914062 247.261719 182.914062 243.089844 182.910156 238.917969 C 182.90625 235.105469 182.90625 231.292969 182.910156 227.476562 C 182.910156 226.09375 182.910156 224.707031 182.90625 223.320312 C 182.902344 221.449219 182.902344 219.578125 182.90625 217.707031 L 182.902344 216.042969 C 182.90625 214.777344 182.949219 213.515625 183 212.25 Z M 183.75 211.5 " fill-opacity="1" fill-rule="nonzero"/><path fill="#2eccef" d="M 553.5 349.5 L 556.5 351 L 553.5 351.75 Z M 570.75 346.5 L 572.25 346.5 L 573 348 L 575.25 347.25 L 576 348 C 576.105469 350.003906 576.03125 351.992188 576 354 L 577.5 354 L 577.5 358.5 L 576 358.5 L 574.5 355.5 L 574.5 357.75 L 573 357.75 L 573.75 360 L 570.75 360 L 570.75 361.5 L 573 361.5 L 573.75 368.25 L 575.25 366.75 L 575.25 371.25 L 576.75 363.75 L 577.5 363.75 C 577.136719 370.609375 575.957031 377.117188 574.453125 383.8125 L 573.8125 386.726562 C 573.296875 389.066406 572.777344 391.410156 572.25 393.75 L 570.75 393.75 L 570.75 397.5 L 569.25 397.5 L 569.25 396 L 567 396.75 C 563.554688 396.90625 560.109375 396.890625 556.660156 396.890625 C 554.957031 396.890625 553.253906 396.902344 551.554688 396.917969 C 550.472656 396.921875 549.394531 396.921875 548.316406 396.921875 L 545.335938 396.933594 L 543 396.75 L 541.5 395.25 C 541.40625 392.53125 541.40625 392.53125 541.5 390 L 536.25 390.75 L 536.25 388.5 L 538.5 388.5 L 539.25 384 L 537 384.75 L 537 381.75 L 539.53125 381.46875 L 542.25 381 L 543.75 379.5 L 544.5 383.25 L 546 382.5 L 546 380.25 L 547.5 378.75 C 547.800781 377.007812 548.054688 375.257812 548.25 373.5 L 546.75 373.5 L 546.75 372 L 542.25 370.5 L 543.65625 368.953125 C 545.5 366.40625 546.035156 364.53125 546.75 361.5 L 545.25 361.5 C 546 359.25 546 359.25 546.75 358.5 L 546 357.75 C 545.96875 356.25 545.96875 354.75 546 353.25 L 549.75 354 L 550.5 351.75 L 552 351.75 L 552.75 350.25 L 554.25 353.25 L 552.75 353.25 L 553.5 355.5 L 549.75 357 L 549.75 359.25 L 553.5 356.25 L 555.328125 357 C 557.023438 357.796875 557.023438 357.796875 558 357.75 L 557.25 354 L 560.25 354 L 561 355.5 L 562.5 356.25 L 562.078125 357.65625 C 561.96875 358.183594 561.859375 358.707031 561.75 359.25 L 562.5 360.75 L 565.5 357.75 L 566.25 360 C 568.035156 359.109375 569.300781 358.402344 570.75 357 C 571.53125 353.753906 571.578125 351.21875 570.75 348 Z M 570.75 346.5 " fill-opacity="1" fill-rule="nonzero"/><path fill="#2393ac" d="M 456.75 260.25 L 460.5 264 L 462.140625 263.15625 L 464.25 262.5 C 466.359375 263.15625 466.359375 263.15625 468 264 L 468.75 262.5 L 468.75 264 L 470.25 264.75 L 468.75 264.75 L 468.75 266.25 L 592.5 266.25 L 594 262.5 L 594.75 262.5 L 594 267.75 L 469.5 267.75 L 469.5 342.75 L 582 342.75 C 581.15625 350.34375 581.15625 350.34375 580.519531 353.277344 L 580.117188 355.160156 L 579.703125 357.046875 L 579.28125 359.015625 C 578.9375 360.59375 578.59375 362.171875 578.25 363.75 L 577.5 363.75 C 577.964844 357.101562 579.257812 350.867188 580.5 344.25 L 469.5 344.25 C 468.652344 347.851562 468.652344 347.851562 468.75 351 L 468 352.5 L 466.5 352.5 L 466.5 351 C 465.234375 351.457031 463.984375 351.957031 462.75 352.5 L 462 354 L 461.25 351.75 L 459.75 351 C 460.777344 348.886719 461.902344 346.824219 463.125 344.8125 L 464.085938 343.207031 L 465 342 L 466.5 342 L 466.5 270.75 L 465 271.5 L 464.25 273.75 L 462 273 L 461.25 276.75 C 459.515625 277.171875 459.515625 277.171875 457.5 277.5 L 455.25 276.75 L 453.75 267.75 L 449.25 267.75 L 450 265.5 L 452.25 264 L 452.25 261.75 L 454.5 262.5 L 456.75 261.75 Z M 456.75 260.25 " fill-opacity="1" fill-rule="nonzero"/><path fill="#2eccef" d="M 249 385.5 C 250.894531 387.273438 251.914062 388.25 252.75 390.75 L 254.25 391.5 L 255 389.25 C 257.25 388.5 257.25 388.5 258.890625 388.828125 L 260.25 389.25 L 261 392.25 L 262.5 391.5 L 262.5 393 L 264 393 L 262.5 396 L 256.5 396 L 256.5 397.5 L 353.25 398.25 L 354 391.5 L 354.75 391.5 L 354 399 L 241.5 399 L 241.5 555 L 183.75 555 L 183.75 438 L 184.5 438 L 184.5 554.25 L 240 553.5 L 240 402 L 238.5 402 C 238.121094 400.921875 237.746094 399.84375 237.375 398.765625 L 236.742188 396.945312 C 236.25 395.25 236.25 395.25 236.25 393 L 238.5 393 L 238.5 391.5 L 240 391.5 L 240 393 L 242.15625 393.328125 C 244.5 393.75 244.5 393.75 246 394.5 L 246 393 L 244.5 392.25 L 246 390.09375 L 247.5 387.75 L 247.5 386.25 Z M 599.390625 213.703125 L 602.28125 213.722656 L 604.5 213.75 C 604.109375 219.226562 603.339844 224.652344 602.199219 230.023438 L 601.75 232.210938 C 601.28125 234.476562 600.804688 236.746094 600.328125 239.015625 C 600.007812 240.566406 599.683594 242.121094 599.363281 243.671875 C 598.578125 247.449219 597.792969 251.226562 597 255 L 596.25 255 L 596.25 249.75 L 594 250.5 L 593.25 246.75 L 591.84375 248.25 L 590.25 249.75 L 588.75 249.75 L 589.5 244.5 L 588 243.75 L 588.75 242.25 L 585 243 L 585.046875 240.84375 C 585.167969 238.570312 585.167969 238.570312 584.25 237 C 584.953125 235.03125 584.953125 235.03125 585.75 233.25 L 588.75 234 C 588.324219 232.230469 587.824219 230.480469 587.25 228.75 L 588.75 226.5 L 588 225 L 589.5 223.5 C 591.078125 221.347656 591.078125 221.347656 591.75 219 L 594 218.25 L 594.75 216.75 L 591.75 216 L 591.75 214.5 C 594.421875 213.609375 596.578125 213.675781 599.390625 213.703125 " fill-opacity="1" fill-rule="nonzero"/><path fill="#2eccef" d="M 361.5 359.25 L 362.25 359.25 C 361.75 366.296875 360.289062 373.074219 358.828125 379.96875 C 358.578125 381.164062 358.328125 382.355469 358.078125 383.550781 C 357.472656 386.453125 356.863281 389.351562 356.25 392.25 L 354.75 392.25 L 353.25 398.25 L 246 398.25 L 246 397.5 L 315 397.5 L 315 396 L 316.171875 394.96875 L 317.25 393.75 C 317.078125 392.128906 317.078125 392.128906 316.5 390.75 L 317.953125 390.140625 L 319.5 389.25 L 320.25 387 L 321.75 387.75 C 322.21875 389.296875 322.21875 389.296875 322.5 390.75 L 325.5 390.75 L 327 389.25 L 327.234375 390.703125 L 327.75 392.25 L 330 393 L 331.5 396 C 333.324219 395.734375 333.324219 395.734375 335.25 395.25 C 336.871094 393.726562 336.871094 393.726562 338.25 391.5 L 339.75 391.5 L 340.5 390 L 341.25 392.25 L 341.25 390 L 342.75 390 L 343.5 388.5 L 346.5 388.5 L 347.25 385.5 L 354 387 L 355.5 383.25 L 357 383.25 L 357.253906 380.835938 C 357.800781 376.464844 358.753906 372.179688 359.671875 367.875 L 360.203125 365.355469 C 360.632812 363.320312 361.066406 361.285156 361.5 359.25 M 535.5 384 L 539.25 384 L 538.5 388.5 L 536.25 388.5 L 536.25 390.75 L 542.25 389.25 L 542.25 395.25 C 544.550781 396.398438 546.953125 396.089844 549.476562 396.074219 L 551.183594 396.070312 C 552.988281 396.066406 554.789062 396.054688 556.59375 396.046875 C 557.816406 396.042969 559.039062 396.039062 560.257812 396.035156 C 563.257812 396.027344 566.253906 396.015625 569.25 396 L 570 399 L 468 399 L 468 398.25 L 537 397.5 L 537 396 L 532.53125 396.660156 C 531 396.75 531 396.75 528.75 396 L 530.25 391.5 L 534.75 390.75 L 534.28125 389.0625 C 534 387 534 387 534.703125 385.265625 Z M 535.5 384 " fill-opacity="1" fill-rule="nonzero"/><path fill="#28aed0" d="M 361.5 359.25 L 362.25 359.25 C 361.75 366.296875 360.289062 373.074219 358.828125 379.96875 C 358.578125 381.164062 358.328125 382.355469 358.078125 383.550781 C 357.472656 386.453125 356.863281 389.351562 356.25 392.25 L 354.75 392.25 L 354 394.5 L 352.5 394.5 L 352.5 396 L 348 396 L 348 397.5 L 339 397.5 L 339 396 L 335.25 396 L 338.25 391.5 L 339.75 391.5 L 340.5 390 L 341.25 392.25 L 341.25 390 L 342.75 390 L 343.5 388.5 L 346.5 388.5 L 347.25 385.5 L 354 387 L 355.5 383.25 L 357 383.25 L 357.253906 380.835938 C 357.800781 376.464844 358.753906 372.179688 359.671875 367.875 L 360.203125 365.355469 C 360.632812 363.320312 361.066406 361.285156 361.5 359.25 " fill-opacity="1" fill-rule="nonzero"/><path fill="#2eccef" d="M 591 250.5 L 592.5 251.25 C 592.21875 252.703125 592.21875 252.703125 591.75 254.25 L 590.25 255 L 589.5 257.25 L 595.5 257.25 L 596.25 255 L 595.5 262.5 L 594 262.5 L 592.5 265.5 L 543 265.5 L 543 264.75 L 545.691406 264.691406 C 549.023438 264.621094 552.351562 264.546875 555.683594 264.472656 C 557.121094 264.4375 558.554688 264.40625 559.988281 264.378906 C 571.015625 264.175781 571.015625 264.175781 582 263.25 L 581.25 259.5 L 583.5 258 C 584.042969 256.453125 584.042969 256.453125 584.25 255 L 582.75 254.25 C 584.765625 252.703125 584.765625 252.703125 587.25 251.25 C 589.40625 251.4375 589.40625 251.4375 591 252 Z M 570.75 346.5 L 572.25 346.5 L 573 348 L 575.25 347.25 L 576 348 C 576.105469 350.003906 576.03125 351.992188 576 354 L 577.5 354 L 577.5 358.5 L 576 358.5 L 574.5 355.5 L 574.5 357.75 L 573 357.75 L 573.75 360 L 570.75 360 L 570.75 361.5 L 573 361.5 L 573.75 368.25 L 575.25 366.75 L 575.25 371.25 L 576.75 363.75 L 577.5 363.75 C 577.136719 370.609375 575.957031 377.117188 574.453125 383.8125 L 573.8125 386.726562 C 573.296875 389.066406 572.777344 391.410156 572.25 393.75 L 571.5 393.75 C 571.933594 387.933594 572.71875 382.238281 573.75 376.5 L 573 376.5 L 573 372 L 571.5 372 L 571.5 370.5 L 567 369 L 567 363.75 L 564 363.75 C 564.191406 361.992188 564.445312 360.242188 564.75 358.5 L 566.25 357.75 L 566.25 360 C 568.035156 359.109375 569.300781 358.402344 570.75 357 C 571.53125 353.753906 571.578125 351.21875 570.75 348 Z M 241.5 345 L 365.25 345 C 364.738281 350.125 364.179688 354.371094 363 359.25 C 362.21875 358.273438 361.46875 357.273438 360.75 356.25 L 360.75 354.75 L 357.75 354.75 L 357 357.75 L 355.5 356.25 C 355.5 354.566406 355.683594 352.953125 355.875 351.28125 L 356.085938 349.421875 L 356.25 348 L 362.25 348 L 362.25 345.75 L 241.5 345.75 Z M 241.5 345 " fill-opacity="1" fill-rule="nonzero"/><path fill="#33dff6" d="M 365.25 343.5 L 363.75 346.5 L 363.75 345 L 241.5 345 L 241.5 344.25 C 279.578125 344.035156 317.640625 343.792969 355.679688 343.527344 L 358.335938 343.511719 C 360.640625 343.5 362.945312 343.496094 365.25 343.5 " fill-opacity="1" fill-rule="nonzero"/><path fill="#2eccef" d="M 596.25 223.5 C 597.796875 223.921875 597.796875 223.921875 599.25 225 C 600.335938 227.117188 600.761719 228.832031 600.722656 231.21875 C 600.453125 234.246094 600.226562 235.910156 598.5 238.5 L 598.5 233.25 L 595.5 234 L 597 240 L 598.5 239.25 L 597.75 246 C 596.96875 245.023438 596.21875 244.023438 595.5 243 L 595.5 241.5 L 594 241.5 C 592.976562 239.773438 592.507812 238.597656 592.359375 236.578125 C 592.5 234.75 592.5 234.75 593.25 232.5 L 591.75 231 C 592.011719 228.5 592.640625 226.367188 594 224.25 Z M 596.25 223.5 " fill-opacity="1" fill-rule="nonzero"/><path fill="#28aed0" d="M 597.75 213.75 C 600 213.644531 602.25 213.71875 604.5 213.75 C 604.101562 220.433594 602.859375 226.855469 601.453125 233.390625 C 601.238281 234.402344 601.027344 235.410156 600.8125 236.421875 C 600.296875 238.863281 599.773438 241.308594 599.25 243.75 C 597.195312 241.277344 595.882812 239.578125 595.3125 236.390625 C 595.199219 235.796875 595.085938 235.207031 594.972656 234.59375 L 594.75 233.25 L 598.5 233.25 L 599.25 236.25 C 599.394531 235.140625 599.535156 234.03125 599.671875 232.921875 L 599.910156 231.050781 L 600 229.5 L 599.25 228.75 C 599.074219 225.347656 599.074219 225.347656 600 223.5 C 600.050781 222.09375 600.0625 220.6875 600.046875 219.28125 L 600.027344 217 L 600 215.25 L 597 214.5 Z M 597.75 213.75 " fill-opacity="1" fill-rule="nonzero"/><path fill="#2eccef" d="M 579 348 L 579.75 348 C 579.351562 354.050781 578.371094 359.84375 577.078125 365.765625 L 576.546875 368.253906 C 576.117188 370.253906 575.6875 372.253906 575.25 374.25 L 574.5 374.25 L 574.59375 371.71875 L 574.5 369 L 573 367.5 C 572.796875 365.484375 572.933594 363.53125 573 361.5 L 570.75 361.5 L 570.75 360 L 573 359.25 L 573.28125 357.421875 L 573.75 355.5 L 575.25 354.75 L 576 358.5 L 577.5 358.5 L 577.5 354 L 576 354 L 576 348.75 L 579 349.5 Z M 579 348 " fill-opacity="1" fill-rule="nonzero"/><path fill="#28aed0" d="M 360 345 L 365.25 345 C 364.863281 349.875 364.148438 354.496094 363 359.25 C 362.21875 358.273438 361.46875 357.273438 360.75 356.25 L 360.75 354.75 L 357.75 354.75 L 357 357.75 L 355.5 356.25 C 355.5 354.566406 355.683594 352.953125 355.875 351.28125 L 356.085938 349.421875 L 356.25 348 L 362.25 348 L 362.25 345.75 Z M 360 345 " fill-opacity="1" fill-rule="nonzero"/><path fill="#2eccef" d="M 595.5 255 L 596.25 255 L 595.5 262.5 L 594 262.5 L 592.5 265.5 L 543 265.5 L 543 264.75 L 591.75 264.75 L 591.75 263.25 L 589.5 262.5 L 591 258 L 595.5 257.25 Z M 595.5 255 " fill-opacity="1" fill-rule="nonzero"/><path fill="#1d7290" d="M 576.75 363.75 L 577.5 363.75 C 577.136719 370.609375 575.957031 377.117188 574.453125 383.8125 L 573.8125 386.726562 C 573.296875 389.066406 572.777344 391.410156 572.25 393.75 L 571.5 393.75 C 571.933594 387.933594 572.71875 382.238281 573.75 376.5 L 573 376.5 L 573 372 L 571.5 372 L 572.25 369.75 L 574.5 369.75 L 575.25 366.75 L 575.25 371.25 Z M 576.75 363.75 " fill-opacity="1" fill-rule="nonzero"/><path fill="#28aed0" d="M 594 241.5 C 595.40625 241.78125 595.40625 241.78125 597 242.25 L 598.5 243.75 C 598.507812 245.40625 598.507812 245.40625 598.265625 247.359375 L 598.019531 249.382812 C 597.746094 251.273438 597.433594 253.140625 597 255 L 596.25 255 L 596.25 249.75 L 594 250.5 L 594 246 L 592.5 245.25 L 594 245.25 Z M 594 241.5 " fill-opacity="1" fill-rule="nonzero"/><path fill="#2eccef" d="M 595.5 255 L 596.25 255 L 595.5 262.5 L 594 262.5 L 593.25 264 L 589.5 263.25 L 591 258 L 595.5 257.25 Z M 362.25 354 C 362.613281 359.207031 361.269531 363.972656 360 369 L 359.25 369 L 359.277344 367.601562 C 359.285156 366.996094 359.289062 366.390625 359.296875 365.765625 L 359.324219 363.945312 C 359.324219 362.125 359.324219 362.125 358.5 360 L 360 360 L 358.875 358.21875 C 357.75 356.25 357.75 356.25 357.75 354.75 C 361.40625 354 361.40625 354 362.25 354 M 579 348 L 579.75 348 C 579.386719 353.136719 578.730469 357.996094 577.5 363 L 576.75 363 L 577.5 354 L 576 354 L 576 348.75 L 579 349.5 Z M 579 348 " fill-opacity="1" fill-rule="nonzero"/><path fill="#28aed0" d="M 594.75 233.25 L 598.5 233.25 L 599.25 243.75 C 595.875 239.53125 595.875 239.53125 595.3125 236.390625 C 595.199219 235.796875 595.085938 235.207031 594.972656 234.59375 Z M 594.75 233.25 " fill-opacity="1" fill-rule="nonzero"/><path fill="#33dff6" d="M 594.75 237.75 L 596.25 237.75 L 597 240 L 598.5 239.25 L 597.75 246 C 596.96875 245.023438 596.21875 244.023438 595.5 243 L 595.5 241.5 L 594 241.5 Z M 594.75 237.75 " fill-opacity="1" fill-rule="nonzero"/><path fill="#28aed0" d="M 603 218.25 L 603.75 218.25 C 603.441406 221.976562 603.152344 225.332031 601.5 228.75 L 600.75 228.75 L 600 219.75 L 602.25 221.25 Z M 603 218.25 " fill-opacity="1" fill-rule="nonzero"/><path fill="#2eccef" d="M 571.5 374.25 L 573 375.75 L 574.5 375 L 573.75 381 C 572.25 378.75 572.25 378.75 571.5 377.25 L 570 377.25 L 570 375 Z M 571.5 374.25 " fill-opacity="1" fill-rule="nonzero"/><path fill="#33dff6" d="M 360.75 358.5 L 361.5 358.5 C 361.414062 359.6875 361.320312 360.875 361.21875 362.0625 L 361.0625 364.066406 C 360.75 365.992188 360.214844 367.320312 359.25 369 L 359.277344 367.601562 C 359.285156 366.996094 359.289062 366.390625 359.296875 365.765625 L 359.324219 363.945312 C 359.324219 362.125 359.324219 362.125 358.5 360 L 360.75 360 Z M 365.25 343.5 L 363.75 346.5 L 363.75 345 L 354 345 L 354 344.25 C 357.769531 343.78125 361.445312 343.402344 365.25 343.5 " fill-opacity="1" fill-rule="nonzero"/><path fill="#2eccef" d="M 355.5 385.5 C 356.25 387.75 356.25 387.75 355.921875 389.390625 L 355.5 390.75 L 350.25 390.75 L 350.25 389.25 L 351.75 389.25 L 351.75 387.75 L 353.203125 387.46875 L 354.75 387 Z M 355.5 385.5 " fill-opacity="1" fill-rule="nonzero"/><path fill="#28aed0" d="M 355.5 387.75 L 356.25 387.75 L 356.25 392.25 L 354.75 392.25 L 353.25 393.75 L 353.25 391.5 L 350.25 390.75 C 351.492188 390.457031 352.742188 390.207031 354 390 L 355.5 390.75 Z M 355.5 387.75 " fill-opacity="1" fill-rule="nonzero"/><path fill="#28aed0" d="M 355.5 383.25 L 357 383.25 L 357 387.75 L 355.5 387 L 354 389.25 C 354.222656 387.496094 354.472656 385.746094 354.75 384 Z M 360.75 351.75 L 363 353.25 C 363.304688 355.285156 363.101562 357.183594 363 359.25 C 361.769531 357.753906 360.835938 356.492188 360.1875 354.65625 L 360 353.25 Z M 360.75 351.75 " fill-opacity="1" fill-rule="nonzero"/><path fill="#1f778a" d="M 595.5 255 L 596.25 255 L 595.5 262.5 L 594 261 C 593.90625 259.03125 593.90625 259.03125 594 257.25 L 595.5 257.25 Z M 595.5 255 " fill-opacity="1" fill-rule="nonzero"/><path fill="#2eccef" d="M 579 348 L 579.75 348 L 579 355.5 L 578.25 355.5 L 577.5 349.5 L 579 349.5 Z M 579 348 " fill-opacity="1" fill-rule="nonzero"/></svg>